<svg version="1.1" id="Layer_1" xmlns="http://www.w3.org/2000/svg" x="0px" y="0px" viewBox="0 0 800 800" style="enable-background:new 0 0 800 800" xml:space="preserve"><style>.st0{fill:#57585A}.st1{fill:#079444}.st2{fill:#FFFFFF}</style><path class="st0" d="M226.9,426.4c0.1-0.3,0.3-0.4,0.5-0.4h0.4c0.3,0,0.4,0.1,0.5,0.3l2.5,14.1h0.1l6.5-14.1 c0.1-0.2,0.2-0.3,0.5-0.3h0.4c0.3,0,0.5,0.2,0.5,0.4l0.6,17.3c0,0.4-0.2,0.6-0.6,0.6h-0.9c-0.3,0-0.5-0.2-0.5-0.4l-0.3-12.9h0 l-6,13.2c-0.1,0.2-0.3,0.3-0.5,0.3H230c-0.3,0-0.4-0.1-0.5-0.3l-2.4-13.4h0l-3.9,13.1c-0.1,0.2-0.2,0.4-0.5,0.4h-0.9 c-0.4,0-0.5-0.3-0.4-0.6"/><path class="st0" d="M253.1,433.8c2.1,0,3.2,1.2,3.2,2.7c0,2.2-2.4,3.5-6.9,3.1c-0.2,1.7,0.8,3.3,2.4,3.3c0.9,0,1.7-0.4,2.3-0.8 c0.3-0.2,0.5-0.2,0.6,0.1l0.3,0.4c0.1,0.2,0.2,0.4-0.2,0.7c-0.7,0.5-1.9,1.2-3.4,1.2c-2.2,0-3.8-2.1-3.8-4.6 C247.6,436.7,249.8,433.8,253.1,433.8 M254.4,436.6c0-0.7-0.6-1.2-1.6-1.2c-1.4,0-2.9,1.3-3.3,2.9 C252.6,438.5,254.4,437.8,254.4,436.6"/><path class="st0" d="M264.8,434.5c0-0.3,0.2-0.5,0.5-0.5h0.5c0.2,0,0.3,0.1,0.3,0.3l0.1,0.8c0.1,0,1.3-1.4,3.2-1.4 c1.4,0,2.2,0.8,2.7,1.7c0.2-0.1,1.9-1.7,3.7-1.7c2.5,0,3.4,2,3,4.6l-0.8,5.4c0,0.3-0.3,0.5-0.5,0.5h-0.9c-0.3,0-0.4-0.2-0.4-0.5 l0.8-5.4c0.3-1.9-0.3-2.9-1.6-2.9c-1.5,0-2.6,1.1-2.9,1.4c0,0.4-0.1,0.9-0.1,1.5l-0.7,5.4c0,0.3-0.3,0.5-0.5,0.5h-0.9 c-0.2,0-0.4-0.2-0.4-0.5l0.7-5.4c0.3-2-0.3-2.9-1.7-2.9c-1.6,0-2.7,1.5-2.8,1.5l-1,6.9c0,0.3-0.3,0.5-0.5,0.5h-0.9 c-0.2,0-0.4-0.2-0.4-0.5"/><path class="st0" d="M289.5,426.8c0-0.3,0.3-0.5,0.5-0.5h0.9c0.2,0,0.4,0.2,0.4,0.5l-1.1,7.6c0.1,0,1.1-0.7,2.5-0.7 c2.2,0,3.8,2,3.8,4.6c0,3.3-2.2,6.2-5.1,6.2c-1.7,0-2.7-1.4-2.7-1.4l-0.3,0.7c-0.1,0.2-0.2,0.4-0.5,0.4h-0.5 c-0.2,0-0.4-0.2-0.4-0.5 M291.5,442.9c1.8,0,3.2-2.1,3.2-4.4c0-1.7-1-3.1-2.4-3.1c-1.3,0-2.3,0.6-2.3,0.6l-0.7,5.1 C289.3,441.2,289.9,442.9,291.5,442.9"/><path class="st0" d="M305.5,434.5c0-0.3,0.2-0.5,0.5-0.5h0.5c0.2,0,0.3,0.1,0.3,0.4l0.1,0.7c0.1,0,1.1-1.4,3-1.4 c0.7,0,1.9,0.1,1.5,0.8l-0.4,0.8c-0.2,0.3-0.4,0.3-0.6,0.2c-0.2-0.1-0.5-0.2-1-0.2c-1.4,0-2.4,1.5-2.5,1.5l-1,6.9 c0,0.3-0.3,0.5-0.6,0.5h-0.8c-0.2,0-0.4-0.2-0.4-0.5"/><path class="st0" d="M323.2,433.8c2.1,0,3.2,1.2,3.2,2.7c0,2.2-2.4,3.5-6.9,3.1c-0.2,1.7,0.8,3.3,2.4,3.3c0.9,0,1.7-0.4,2.3-0.8 c0.3-0.2,0.5-0.2,0.6,0.1l0.3,0.4c0.1,0.2,0.2,0.4-0.2,0.7c-0.7,0.5-1.9,1.2-3.4,1.2c-2.2,0-3.8-2.1-3.8-4.6 C317.7,436.7,319.9,433.8,323.2,433.8 M324.5,436.6c0-0.7-0.6-1.2-1.6-1.2c-1.4,0-2.9,1.3-3.3,2.9 C322.7,438.5,324.5,437.8,324.5,436.6"/><path class="st0" d="M344.8,440c0-3.4,2.3-6.2,5.3-6.2c1.4,0,2.2,0.7,2.3,0.7l1.1-7.6c0-0.3,0.3-0.5,0.5-0.5h0.9 c0.2,0,0.4,0.2,0.4,0.5l-2.4,17.1c0,0.3-0.2,0.4-0.5,0.4h-0.6c-0.2,0-0.3-0.2-0.3-0.4l-0.1-0.7c-0.1,0-1.2,1.3-3.1,1.3 C346.3,444.6,344.8,442.5,344.8,440 M351.5,441.2l0.7-5.1c0,0-0.8-0.6-2.1-0.6c-1.9,0-3.5,1.9-3.5,4.3c0,1.6,0.7,3.1,2.2,3.1 C350.5,442.9,351.5,441.2,351.5,441.2"/><path class="st0" d="M367.4,433.8c2.1,0,3.2,1.2,3.2,2.7c0,2.2-2.4,3.5-6.9,3.1c-0.2,1.7,0.8,3.3,2.4,3.3c0.9,0,1.7-0.4,2.3-0.8 c0.3-0.2,0.5-0.2,0.6,0.1l0.3,0.4c0.1,0.2,0.2,0.4-0.2,0.7c-0.7,0.5-1.9,1.2-3.4,1.2c-2.2,0-3.8-2.1-3.8-4.6 C361.9,436.7,364.1,433.8,367.4,433.8 M368.8,436.6c0-0.7-0.6-1.2-1.6-1.2c-1.4,0-2.9,1.3-3.3,2.9 C366.9,438.5,368.8,437.8,368.8,436.6"/><path class="st0" d="M221.4,465.7c0-0.3,0.2-0.5,0.5-0.5h2.6c0.3,0,0.5,0.3,0.5,0.5v7.4h7.9v-7.4c0-0.3,0.2-0.5,0.5-0.5h2.5 c0.3,0,0.5,0.3,0.5,0.5V484c0,0.3-0.2,0.5-0.5,0.5h-2.5c-0.3,0-0.5-0.3-0.5-0.5v-7.7H225v7.7c0,0.3-0.2,0.5-0.5,0.5h-2.6 c-0.3,0-0.5-0.3-0.5-0.5"/><path class="st0" d="M251.8,464.9c5.5,0,9.9,4.4,9.9,9.9c0,5.5-4.4,9.9-9.9,9.9s-9.9-4.4-9.9-9.9 C241.9,469.4,246.3,464.9,251.8,464.9 M251.8,481.1c3.5,0,6.3-2.8,6.3-6.3c0-3.5-2.9-6.3-6.3-6.3c-3.5,0-6.3,2.9-6.3,6.3 C245.5,478.3,248.3,481.1,251.8,481.1"/><path class="st0" d="M267.2,465.6c0-0.3,0.2-0.5,0.5-0.5h0.7l10.9,11.9h0v-11.3c0-0.3,0.2-0.5,0.5-0.5h2.5c0.3,0,0.5,0.2,0.5,0.5 V484c0,0.3-0.2,0.5-0.5,0.5h-0.7l-10.9-12h0V484c0,0.3-0.2,0.5-0.5,0.5h-2.5c-0.3,0-0.5-0.2-0.5-0.5"/><path class="st0" d="M313.7,465.7c0-0.3,0.2-0.5,0.5-0.5h9.2c3.3,0,5.9,2.7,5.9,6c0,2.5-1.7,4.7-4,5.7l4,7c0.2,0.4,0,0.8-0.5,0.8 H326c-0.2,0-0.4-0.1-0.4-0.2l-3.9-7.3h-4.4v7c0,0.3-0.2,0.5-0.5,0.5h-2.5c-0.3,0-0.5-0.2-0.5-0.5 M323.1,473.9 c1.4,0,2.7-1.2,2.7-2.8c0-1.5-1.3-2.7-2.7-2.7h-5.8v5.5H323.1z"/><path class="st0" d="M341,466.2c0-0.3,0.3-0.5,0.5-0.5h2.6c0.3,0,0.5,0.2,0.5,0.5v17.3c0,0.3-0.3,0.5-0.5,0.5h-2.6 c-0.3,0-0.5-0.2-0.5-0.5"/><path class="st0" d="M349.8,481.5c0.2,0,0.4,0.2,0.4,0.4v2.2c0,0.2-0.2,0.4-0.4,0.4h-14c-0.2,0-0.4-0.2-0.4-0.4V482 c0-0.2,0.2-0.4,0.4-0.4"/><path class="st0" d="M348.7,465.1c0.2,0,0.4,0.2,0.4,0.4v2.2c0,0.2-0.2,0.4-0.4,0.4h-11.8c-0.2,0-0.4-0.2-0.4-0.4v-2.2 c0-0.2,0.2-0.4,0.4-0.4"/><path class="st0" d="M404,465.9v-0.5h6.7v0.5H410c-0.7,0-1.3,0.3-1.7,0.9c-0.2,0.3-0.3,1-0.3,2v7.7c0,1.9-0.2,3.4-0.6,4.4 c-0.4,1-1.1,1.9-2.2,2.7c-1.1,0.7-2.6,1.1-4.5,1.1c-2.1,0-3.6-0.4-4.7-1.1c-1.1-0.7-1.8-1.7-2.3-2.9c-0.3-0.8-0.4-2.4-0.4-4.7v-7.4 c0-1.2-0.2-1.9-0.5-2.3c-0.3-0.4-0.8-0.5-1.6-0.5h-0.7v-0.5h8.2v0.5H398c-0.8,0-1.3,0.2-1.7,0.7c-0.2,0.3-0.3,1-0.3,2.1v8.2 c0,0.7,0.1,1.6,0.2,2.5c0.1,1,0.4,1.7,0.7,2.2c0.4,0.5,0.9,1,1.5,1.3c0.7,0.3,1.5,0.5,2.4,0.5c1.2,0,2.3-0.3,3.3-0.8s1.6-1.2,2-2.1 c0.4-0.8,0.5-2.3,0.5-4.3v-7.7c0-1.2-0.1-1.9-0.4-2.2c-0.4-0.4-0.9-0.6-1.6-0.6"/><path class="st0" d="M415.6,465.4h5.1l11.6,14.2v-10.9c0-1.2-0.1-1.9-0.4-2.2c-0.3-0.4-0.9-0.6-1.6-0.6h-0.7v-0.5h6.6v0.5h-0.7 c-0.8,0-1.4,0.2-1.7,0.7c-0.2,0.3-0.3,1-0.3,2v15.9H433l-12.5-15.2V481c0,1.2,0.1,1.9,0.4,2.2c0.4,0.4,0.9,0.6,1.6,0.6h0.7v0.5 h-6.6v-0.5h0.7c0.8,0,1.4-0.2,1.7-0.7c0.2-0.3,0.3-1,0.3-2v-13.1c-0.5-0.6-1-1.1-1.2-1.3c-0.3-0.2-0.7-0.4-1.2-0.6 c-0.3-0.1-0.7-0.1-1.2-0.1"/><path class="st0" d="M450.4,483.8v0.5h-8.1v-0.5h0.7c0.8,0,1.3-0.2,1.7-0.7c0.2-0.3,0.3-1,0.3-2.1v-12.2c0-1-0.1-1.6-0.2-1.9 c-0.1-0.2-0.3-0.4-0.6-0.6c-0.4-0.2-0.8-0.3-1.3-0.3h-0.7v-0.5h8.1v0.5h-0.7c-0.8,0-1.3,0.2-1.7,0.7c-0.2,0.3-0.3,1-0.3,2.1v12.2 c0,1,0.1,1.6,0.2,1.9c0.1,0.2,0.3,0.4,0.6,0.6c0.4,0.2,0.8,0.3,1.3,0.3"/><path class="st0" d="M472.6,465.4l0.2,4.4h-0.5c-0.1-0.8-0.2-1.3-0.4-1.7c-0.3-0.5-0.7-0.9-1.1-1.2c-0.5-0.3-1.1-0.4-1.9-0.4h-2.7 V481c0,1.2,0.1,1.9,0.4,2.2c0.4,0.4,0.9,0.6,1.6,0.6h0.7v0.5h-8v-0.5h0.7c0.8,0,1.4-0.2,1.7-0.7c0.2-0.3,0.3-1,0.3-2v-14.4h-2.3 c-0.9,0-1.5,0.1-1.9,0.2c-0.5,0.2-0.9,0.5-1.2,1c-0.3,0.5-0.5,1.2-0.6,2H457l0.2-4.4"/><path class="st0" d="M484.5,466.4v7.5h4.2c1.1,0,1.8-0.2,2.2-0.5c0.5-0.4,0.8-1.2,0.8-2.3h0.5v6.6h-0.5c-0.1-0.9-0.3-1.5-0.4-1.8 c-0.2-0.3-0.4-0.6-0.8-0.8c-0.4-0.2-1-0.3-1.8-0.3h-4.2v6.2c0,0.8,0,1.3,0.1,1.5c0.1,0.2,0.2,0.3,0.4,0.4c0.2,0.1,0.5,0.2,1.1,0.2 h3.2c1.1,0,1.8-0.1,2.3-0.2c0.5-0.1,0.9-0.4,1.4-0.9c0.6-0.6,1.2-1.4,1.8-2.6h0.6l-1.6,4.7h-14.6v-0.5h0.7c0.4,0,0.9-0.1,1.3-0.3 c0.3-0.1,0.5-0.4,0.6-0.7c0.1-0.3,0.2-0.9,0.2-1.8v-12.3c0-1.2-0.1-1.9-0.4-2.2c-0.3-0.4-0.9-0.6-1.7-0.6h-0.7v-0.5h14.6l0.2,4.1 h-0.5c-0.2-1-0.4-1.7-0.6-2.1c-0.2-0.4-0.6-0.7-1.1-0.8c-0.4-0.1-1-0.2-2-0.2"/><path class="st0" d="M501.5,484.3v-0.5h0.7c0.8,0,1.4-0.3,1.7-0.8c0.2-0.3,0.3-1,0.3-2.1v-12.2c0-1.2-0.1-1.9-0.4-2.2 c-0.4-0.4-0.9-0.6-1.6-0.6h-0.7v-0.5h7.7c2.8,0,5,0.3,6.4,1c1.5,0.6,2.7,1.7,3.6,3.2c0.9,1.5,1.3,3.2,1.3,5.2 c0,2.6-0.8,4.8-2.4,6.6c-1.8,2-4.5,3-8.2,3 M506.9,482.9c1.2,0.3,2.2,0.4,3,0.4c2.2,0,3.9-0.8,5.4-2.3c1.4-1.5,2.1-3.6,2.1-6.2 c0-2.6-0.7-4.7-2.1-6.2c-1.4-1.5-3.2-2.3-5.5-2.3c-0.8,0-1.8,0.1-2.9,0.4V482.9z"/><path class="st0" d="M554.5,465.9v-0.5h6.7v0.5h-0.7c-0.7,0-1.3,0.3-1.7,0.9c-0.2,0.3-0.3,1-0.3,2v7.7c0,1.9-0.2,3.4-0.6,4.4 c-0.4,1-1.1,1.9-2.2,2.7c-1.1,0.7-2.6,1.1-4.5,1.1c-2.1,0-3.6-0.4-4.7-1.1c-1.1-0.7-1.8-1.7-2.3-2.9c-0.3-0.8-0.4-2.4-0.4-4.7v-7.4 c0-1.2-0.2-1.9-0.5-2.3c-0.3-0.4-0.8-0.5-1.6-0.5h-0.7v-0.5h8.2v0.5h-0.7c-0.8,0-1.3,0.2-1.7,0.7c-0.2,0.3-0.3,1-0.3,2.1v8.2 c0,0.7,0.1,1.6,0.2,2.5c0.1,1,0.4,1.7,0.7,2.2c0.4,0.5,0.9,1,1.5,1.3c0.7,0.3,1.5,0.5,2.4,0.5c1.2,0,2.3-0.3,3.3-0.8 c1-0.5,1.6-1.2,2-2.1c0.4-0.8,0.5-2.3,0.5-4.3v-7.7c0-1.2-0.1-1.9-0.4-2.2c-0.4-0.4-0.9-0.6-1.6-0.6"/><path class="st0" d="M566.2,465.4h5.1l11.5,14.2v-10.9c0-1.2-0.1-1.9-0.4-2.2c-0.3-0.4-0.9-0.6-1.6-0.6h-0.7v-0.5h6.6v0.5h-0.7 c-0.8,0-1.4,0.2-1.7,0.7c-0.2,0.3-0.3,1-0.3,2v15.9h-0.5l-12.5-15.2V481c0,1.2,0.1,1.9,0.4,2.2c0.4,0.4,0.9,0.6,1.6,0.6h0.7v0.5 h-6.6v-0.5h0.7c0.8,0,1.4-0.2,1.7-0.7c0.2-0.3,0.3-1,0.3-2v-13.1c-0.5-0.6-1-1.1-1.2-1.3c-0.3-0.2-0.7-0.4-1.2-0.6 c-0.3-0.1-0.7-0.1-1.2-0.1"/><path class="st0" d="M601,483.8v0.5h-8.1v-0.5h0.7c0.8,0,1.3-0.2,1.7-0.7c0.2-0.3,0.3-1,0.3-2.1v-12.2c0-1-0.1-1.6-0.2-1.9 c-0.1-0.2-0.3-0.4-0.6-0.6c-0.4-0.2-0.8-0.3-1.3-0.3h-0.7v-0.5h8.1v0.5h-0.7c-0.8,0-1.3,0.2-1.7,0.7c-0.2,0.3-0.4,1-0.4,2.1v12.2 c0,1,0.1,1.6,0.2,1.9c0.1,0.2,0.3,0.4,0.6,0.6c0.4,0.2,0.8,0.3,1.3,0.3"/><path class="st0" d="M626.9,465.4v0.5c-0.7,0.1-1.2,0.3-1.5,0.6c-0.5,0.5-0.9,1.2-1.3,2.1l-6.6,16.1H617l-7.1-16.3 c-0.4-0.8-0.6-1.3-0.8-1.5c-0.2-0.3-0.5-0.5-0.9-0.7c-0.3-0.2-0.8-0.3-1.4-0.3v-0.5h7.7v0.5c-0.9,0.1-1.4,0.2-1.7,0.4 c-0.3,0.2-0.4,0.5-0.4,0.8c0,0.5,0.2,1.2,0.6,2.2l4.8,11.1l4.5-10.9c0.4-1.1,0.7-1.8,0.7-2.2c0-0.3-0.1-0.5-0.4-0.8 c-0.3-0.2-0.7-0.4-1.4-0.5c0,0-0.1,0-0.2,0v-0.5"/><path class="st0" d="M638.2,466.4v7.5h4.2c1.1,0,1.8-0.2,2.2-0.5c0.5-0.4,0.8-1.2,0.8-2.3h0.5v6.6h-0.5c-0.1-0.9-0.3-1.5-0.4-1.8 c-0.2-0.3-0.4-0.6-0.8-0.8c-0.4-0.2-1-0.3-1.8-0.3h-4.2v6.2c0,0.8,0,1.3,0.1,1.5c0.1,0.2,0.2,0.3,0.4,0.4c0.2,0.1,0.5,0.2,1.1,0.2 h3.2c1.1,0,1.8-0.1,2.3-0.2c0.5-0.1,1-0.4,1.4-0.9c0.6-0.6,1.2-1.4,1.8-2.6h0.6l-1.6,4.7h-14.6v-0.5h0.7c0.4,0,0.9-0.1,1.3-0.3 c0.3-0.1,0.5-0.4,0.6-0.7c0.1-0.3,0.2-0.9,0.2-1.8v-12.3c0-1.2-0.1-1.9-0.4-2.2c-0.3-0.4-0.9-0.6-1.7-0.6h-0.7v-0.5h14.6l0.2,4.1 h-0.5c-0.2-1-0.4-1.7-0.6-2.1c-0.2-0.4-0.6-0.7-1.1-0.8c-0.4-0.1-1-0.2-2-0.2"/><path class="st0" d="M674,484.3h-5l-6.4-8.8c-0.5,0-0.9,0-1.2,0c-0.1,0-0.3,0-0.4,0c-0.1,0-0.3,0-0.4,0v5.5c0,1.2,0.1,1.9,0.4,2.2 c0.4,0.4,0.9,0.6,1.6,0.6h0.7v0.5h-8.1v-0.5h0.7c0.8,0,1.4-0.3,1.7-0.8c0.2-0.3,0.3-1,0.3-2.1v-12.2c0-1.2-0.1-1.9-0.4-2.2 c-0.4-0.4-0.9-0.6-1.6-0.6h-0.7v-0.5h6.9c2,0,3.5,0.2,4.4,0.4c1,0.3,1.8,0.8,2.4,1.6c0.7,0.8,1,1.7,1,2.8c0,1.2-0.4,2.2-1.1,3 c-0.8,0.9-1.9,1.5-3.5,1.8l3.9,5.4c0.9,1.2,1.7,2.1,2.3,2.5c0.6,0.4,1.5,0.7,2.5,0.8 M660.6,474.6c0.2,0,0.3,0,0.5,0 c0.1,0,0.2,0,0.3,0c1.8,0,3.2-0.4,4.1-1.2c0.9-0.8,1.4-1.8,1.4-3c0-1.2-0.4-2.1-1.1-2.9c-0.7-0.7-1.7-1.1-2.9-1.1 c-0.5,0-1.3,0.1-2.2,0.3V474.6z"/><path class="st0" d="M691.3,465v6.5h-0.5c-0.2-1.2-0.5-2.3-0.9-3c-0.4-0.7-1.1-1.3-1.9-1.8c-0.8-0.4-1.6-0.7-2.5-0.7 c-1,0-1.8,0.3-2.4,0.9c-0.6,0.6-0.9,1.3-0.9,2c0,0.6,0.2,1.1,0.6,1.6c0.6,0.7,1.9,1.6,4.1,2.8c1.8,1,3,1.7,3.6,2.2 c0.6,0.5,1.1,1.1,1.5,1.8c0.4,0.7,0.5,1.4,0.5,2.2c0,1.4-0.6,2.7-1.7,3.7c-1.1,1-2.5,1.6-4.3,1.6c-0.5,0-1.1,0-1.5-0.1 c-0.3,0-0.9-0.2-1.8-0.5c-0.9-0.3-1.5-0.4-1.7-0.4c-0.2,0-0.4,0.1-0.6,0.2c-0.1,0.1-0.2,0.4-0.3,0.9h-0.5v-6.5h0.5 c0.2,1.4,0.6,2.4,1,3c0.4,0.7,1,1.2,1.9,1.7c0.8,0.5,1.8,0.7,2.8,0.7c1.2,0,2.1-0.3,2.7-0.9c0.7-0.6,1-1.3,1-2.2 c0-0.5-0.1-0.9-0.4-1.4c-0.3-0.5-0.7-0.9-1.2-1.3c-0.4-0.3-1.4-0.9-3-1.8c-1.6-0.9-2.8-1.6-3.4-2.2c-0.7-0.5-1.2-1.1-1.6-1.8 c-0.3-0.6-0.5-1.4-0.5-2.1c0-1.4,0.5-2.5,1.6-3.5c1-1,2.4-1.5,4-1.5c1,0,2.1,0.2,3.2,0.7c0.5,0.2,0.9,0.3,1.1,0.3 c0.2,0,0.4-0.1,0.6-0.2c0.2-0.1,0.3-0.4,0.4-0.9"/><path class="st0" d="M707.9,483.8v0.5h-8.1v-0.5h0.7c0.8,0,1.3-0.2,1.7-0.7c0.2-0.3,0.3-1,0.3-2.1v-12.2c0-1-0.1-1.6-0.2-1.9 c-0.1-0.2-0.3-0.4-0.6-0.6c-0.4-0.2-0.8-0.3-1.3-0.3h-0.7v-0.5h8.1v0.5h-0.7c-0.8,0-1.3,0.2-1.7,0.7c-0.2,0.3-0.4,1-0.4,2.1v12.2 c0,1,0.1,1.6,0.2,1.9c0.1,0.2,0.3,0.4,0.6,0.6c0.4,0.2,0.8,0.3,1.3,0.3"/><path class="st0" d="M730.1,465.4l0.2,4.4h-0.5c-0.1-0.8-0.2-1.3-0.4-1.7c-0.3-0.5-0.7-0.9-1.1-1.2c-0.5-0.3-1.1-0.4-1.9-0.4h-2.7 V481c0,1.2,0.1,1.9,0.4,2.2c0.4,0.4,0.9,0.6,1.6,0.6h0.7v0.5h-8v-0.5h0.7c0.8,0,1.4-0.2,1.7-0.7c0.2-0.3,0.3-1,0.3-2v-14.4h-2.3 c-0.9,0-1.5,0.1-1.9,0.2c-0.5,0.2-0.9,0.5-1.2,1c-0.3,0.5-0.5,1.2-0.6,2h-0.5l0.2-4.4"/><path class="st0" d="M744.8,483.8v0.5h-8.1v-0.5h0.7c0.8,0,1.3-0.2,1.7-0.7c0.2-0.3,0.3-1,0.3-2.1v-12.2c0-1-0.1-1.6-0.2-1.9 c-0.1-0.2-0.3-0.4-0.6-0.6c-0.4-0.2-0.8-0.3-1.3-0.3h-0.7v-0.5h8.1v0.5h-0.7c-0.8,0-1.3,0.2-1.7,0.7c-0.2,0.3-0.3,1-0.3,2.1v12.2 c0,1,0.1,1.6,0.2,1.9c0.1,0.2,0.3,0.4,0.6,0.6c0.4,0.2,0.8,0.3,1.3,0.3"/><path class="st0" d="M756.5,466.4v7.5h4.2c1.1,0,1.8-0.2,2.2-0.5c0.5-0.4,0.8-1.2,0.8-2.3h0.5v6.6h-0.5c-0.1-0.9-0.3-1.5-0.4-1.8 c-0.2-0.3-0.4-0.6-0.8-0.8c-0.4-0.2-1-0.3-1.8-0.3h-4.2v6.2c0,0.8,0,1.3,0.1,1.5c0.1,0.2,0.2,0.3,0.4,0.4c0.2,0.1,0.5,0.2,1.1,0.2 h3.2c1.1,0,1.8-0.1,2.3-0.2c0.5-0.1,0.9-0.4,1.4-0.9c0.6-0.6,1.2-1.4,1.8-2.6h0.6l-1.6,4.7h-14.6v-0.5h0.7c0.5,0,0.9-0.1,1.3-0.3 c0.3-0.1,0.5-0.4,0.6-0.7c0.1-0.3,0.2-0.9,0.2-1.8v-12.3c0-1.2-0.1-1.9-0.4-2.2c-0.3-0.4-0.9-0.6-1.7-0.6h-0.7v-0.5h14.6l0.2,4.1 h-0.5c-0.2-1-0.4-1.7-0.6-2.1c-0.2-0.4-0.6-0.7-1.1-0.8c-0.4-0.1-1-0.2-2-0.2"/><path class="st0" d="M786,465v6.5h-0.5c-0.2-1.2-0.5-2.3-0.9-3c-0.4-0.7-1-1.3-1.8-1.8c-0.8-0.4-1.6-0.7-2.5-0.7 c-1,0-1.8,0.3-2.4,0.9c-0.6,0.6-0.9,1.3-0.9,2c0,0.6,0.2,1.1,0.6,1.6c0.6,0.7,1.9,1.6,4.1,2.8c1.8,1,3,1.7,3.6,2.2 c0.6,0.5,1.1,1.1,1.5,1.8c0.3,0.7,0.5,1.4,0.5,2.2c0,1.4-0.6,2.7-1.7,3.7c-1.1,1-2.5,1.6-4.3,1.6c-0.5,0-1.1,0-1.5-0.1 c-0.3,0-0.9-0.2-1.8-0.5c-0.9-0.3-1.5-0.4-1.7-0.4c-0.2,0-0.4,0.1-0.6,0.2c-0.1,0.1-0.2,0.4-0.3,0.9h-0.5v-6.5h0.5 c0.2,1.4,0.6,2.4,1,3c0.4,0.7,1,1.2,1.9,1.7c0.8,0.5,1.8,0.7,2.8,0.7c1.2,0,2.1-0.3,2.8-0.9c0.7-0.6,1-1.3,1-2.2 c0-0.5-0.1-0.9-0.4-1.4c-0.3-0.5-0.7-0.9-1.2-1.3c-0.4-0.3-1.3-0.9-3-1.8c-1.6-0.9-2.8-1.6-3.4-2.2c-0.7-0.5-1.2-1.1-1.6-1.8 c-0.4-0.6-0.5-1.4-0.5-2.1c0-1.4,0.5-2.5,1.6-3.5c1-1,2.4-1.5,4-1.5c1,0,2.1,0.2,3.2,0.7c0.5,0.2,0.9,0.3,1.1,0.3 c0.2,0,0.4-0.1,0.6-0.2c0.2-0.1,0.3-0.4,0.4-0.9"/><path class="st0" d="M356.4,481.4l1-1.7c0.2-0.4,0.7-0.4,1-0.2c0.6,0.4,3,2,5,2c1.5,0,2.6-0.9,2.6-2.1c0-1.6-1.3-2.3-3.7-3.2 c-2.7-1-5.3-2.7-5.3-5.9c0-2.4,1.8-5.3,6.4-5.3c2.9,0,5.2,1.4,5.7,1.8c0.3,0.2,0.4,0.6,0.2,0.9l-0.9,1.4c-0.2,0.3-0.6,0.5-1,0.3 c-1.4-0.6-2.7-1.3-4.3-1.3c-1.6,0-2.5,0.9-2.5,1.9c0,1.3,1.2,2.2,3.5,3.1c2.8,1.1,6,2.7,6,6.2c0,2.8-2.5,5.4-6.6,5.4 c-3.6,0-6.3-1.9-6.9-2.5C356.3,482,356.1,481.9,356.4,481.4"/><path class="st0" d="M298.3,464.9c5.5,0,9.9,4.4,9.9,9.9c0,5.5-4.4,9.9-9.9,9.9c-5.5,0-9.9-4.4-9.9-9.9 C288.4,469.4,292.8,464.9,298.3,464.9 M298.3,481.1c3.5,0,6.3-2.8,6.3-6.3c0-3.5-2.9-6.3-6.3-6.3c-3.5,0-6.3,2.9-6.3,6.3 C292,478.3,294.8,481.1,298.3,481.1"/><path class="st1" d="M222.2,405.9l1.7-2.9c0.4-0.6,1.2-0.6,1.6-0.3c0.2,0.1,4,2.9,7,2.9c2.4,0,4.2-1.6,4.2-3.6c0-2.4-2-4-5.9-5.6 c-4.4-1.8-8.7-4.5-8.7-10c0-4.1,3.1-8.9,10.4-8.9c4.7,0,8.3,2.4,9.2,3.1c0.5,0.3,0.6,1.1,0.3,1.5l-1.8,2.6 c-0.4,0.6-1.1,0.9-1.6,0.6c-0.4-0.2-3.9-2.5-6.4-2.5c-2.6,0-4.1,1.8-4.1,3.2c0,2.2,1.7,3.7,5.5,5.2c4.5,1.8,9.7,4.5,9.7,10.4 c0,4.8-4.1,9.2-10.6,9.2c-5.8,0-9.2-2.7-10.2-3.6C222,406.9,221.8,406.6,222.2,405.9"/><path class="st1" d="M262.9,377.6c4.7,0,8,1.5,11.2,4.3c0.4,0.4,0.4,0.9,0,1.3l-2.8,2.9c-0.3,0.4-0.8,0.4-1.2,0 c-1.9-1.7-4.5-2.7-7.1-2.7c-5.9,0-10.3,5-10.3,10.8c0,5.8,4.4,10.7,10.4,10.7c2.8,0,5.1-1.1,7.1-2.6c0.4-0.3,0.9-0.3,1.2,0l2.9,3 c0.4,0.3,0.3,0.9,0,1.2c-3.1,3.1-7.1,4.5-11.2,4.5c-9.2,0-16.7-7.4-16.7-16.6C246.2,385,253.7,377.6,262.9,377.6"/><path class="st1" d="M279.6,378.9c0-0.5,0.4-0.9,0.9-0.9h4.3c0.5,0,0.9,0.4,0.9,0.9v30.6c0,0.5-0.4,0.9-0.9,0.9h-4.3 c-0.5,0-0.9-0.4-0.9-0.9"/><path class="st1" d="M293.5,378.9c0-0.5,0.4-0.9,0.9-0.9h18.8c0.5,0,0.9,0.4,0.9,0.9v3.8c0,0.5-0.4,0.9-0.9,0.9h-13.7v7.6h11.4 c0.5,0,0.9,0.4,0.9,0.9v3.8c0,0.5-0.4,0.9-0.9,0.9h-11.4v8.1h13.7c0.5,0,0.9,0.4,0.9,0.9v3.8c0,0.5-0.4,0.9-0.9,0.9h-18.8 c-0.5,0-0.9-0.4-0.9-0.9"/><path class="st1" d="M320.1,378.4c0-0.5,0.4-0.8,0.9-0.8h1.2l19.2,20.4h0v-19.1c0-0.5,0.4-0.9,0.9-0.9h4.3c0.5,0,0.9,0.4,0.9,0.9 v31.1c0,0.5-0.4,0.8-0.9,0.8h-1.1l-19.3-21.2h0v19.9c0,0.5-0.4,0.9-0.9,0.9h-4.2c-0.5,0-0.9-0.4-0.9-0.9"/><path class="st1" d="M369.5,377.6c4.7,0,8,1.5,11.2,4.3c0.4,0.4,0.4,0.9,0,1.3l-2.8,2.9c-0.3,0.4-0.8,0.4-1.2,0 c-1.9-1.7-4.5-2.7-7.1-2.7c-5.9,0-10.3,5-10.3,10.8c0,5.8,4.4,10.7,10.4,10.7c2.8,0,5.1-1.1,7.1-2.6c0.4-0.3,0.9-0.3,1.2,0l2.9,3 c0.4,0.3,0.3,0.9-0.1,1.2c-3.1,3.1-7.1,4.5-11.2,4.5c-9.2,0-16.7-7.4-16.7-16.6C352.9,385,360.3,377.6,369.5,377.6"/><path class="st1" d="M386.2,378.9c0-0.5,0.4-0.9,0.9-0.9h18.8c0.5,0,0.9,0.4,0.9,0.9v3.8c0,0.5-0.4,0.9-0.9,0.9h-13.7v7.6h11.4 c0.5,0,0.9,0.4,0.9,0.9v3.8c0,0.5-0.4,0.9-0.9,0.9h-11.4v8.1h13.7c0.5,0,0.9,0.4,0.9,0.9v3.8c0,0.5-0.4,0.9-0.9,0.9h-18.8 c-0.5,0-0.9-0.4-0.9-0.9"/><path class="st1" d="M410.9,405.9l1.7-2.9c0.4-0.6,1.2-0.6,1.6-0.3c0.2,0.1,4,2.9,7,2.9c2.4,0,4.2-1.6,4.2-3.6c0-2.4-2-4-5.9-5.6 c-4.4-1.8-8.7-4.5-8.7-10c0-4.1,3.1-8.9,10.4-8.9c4.7,0,8.3,2.4,9.2,3.1c0.5,0.3,0.6,1.1,0.3,1.5l-1.8,2.6 c-0.4,0.6-1.1,0.9-1.6,0.6c-0.4-0.2-3.9-2.5-6.4-2.5c-2.6,0-4.1,1.8-4.1,3.2c0,2.2,1.7,3.7,5.5,5.2c4.5,1.8,9.7,4.5,9.7,10.4 c0,4.8-4.1,9.2-10.6,9.2c-5.8,0-9.2-2.7-10.2-3.6C410.7,406.9,410.5,406.6,410.9,405.9"/><path class="st1" d="M446.9,378.9c0-0.5,0.4-0.9,0.8-0.9h11c8.9,0,16.2,7.3,16.2,16.1c0,9-7.3,16.2-16.2,16.2h-11 c-0.5,0-0.8-0.4-0.8-0.9 M458.1,404.8c6,0,10.4-4.5,10.4-10.6c0-6-4.4-10.5-10.4-10.5h-5.3v21.1H458.1z"/><path class="st1" d="M480.4,378.9c0-0.5,0.4-0.9,0.9-0.9h18.8c0.5,0,0.9,0.4,0.9,0.9v3.8c0,0.5-0.4,0.9-0.9,0.9h-13.7v7.6h11.4 c0.5,0,0.9,0.4,0.9,0.9v3.8c0,0.5-0.4,0.9-0.9,0.9h-11.4v8.1h13.7c0.5,0,0.9,0.4,0.9,0.9v3.8c0,0.5-0.4,0.9-0.9,0.9h-18.8 c-0.5,0-0.9-0.4-0.9-0.9"/><path class="st1" d="M516.6,378.9c0-0.5,0.4-0.9,0.9-0.9h4.3c0.5,0,0.9,0.4,0.9,0.9v25.9h11.8c0.5,0,0.9,0.4,0.9,0.9v3.8 c0,0.5-0.4,0.9-0.9,0.9h-16.9c-0.5,0-0.9-0.4-0.9-0.9"/><path class="st1" d="M535.8,390.2c-0.3-0.3-0.2-0.8,0.1-1.1c0.5-0.3,3.1-2.4,3.1-5.6c0,0-0.6,0.2-1.4,0.2c-1.7,0-3.1-1.3-3.1-3.1 c0-1.7,1.4-3.1,3.3-3.1c1.7,0,3.8,1.2,3.8,4.9c0,4.5-3,7.3-4.2,8.4c-0.4,0.3-0.7,0.3-1.1,0"/><path class="st1" d="M546.2,378.9c0-0.5,0.4-0.9,0.9-0.9h4.3c0.5,0,0.9,0.4,0.9,0.9v30.6c0,0.5-0.4,0.9-0.9,0.9h-4.3 c-0.5,0-0.9-0.4-0.9-0.9"/><path class="st1" d="M560.1,378.4c0-0.5,0.4-0.8,0.9-0.8h1.2l19.2,20.4h0v-19.1c0-0.5,0.4-0.9,0.9-0.9h4.3c0.5,0,0.9,0.4,0.9,0.9 v31.1c0,0.5-0.4,0.8-0.9,0.8h-1.1l-19.3-21.2h0v19.9c0,0.5-0.4,0.9-0.9,0.9H561c-0.5,0-0.9-0.4-0.9-0.9"/><path class="st1" d="M609.5,377.6c4.2,0,8.1,1.6,11.3,4.3c0.4,0.4,0.4,0.9,0,1.3l-2.9,3c-0.4,0.4-0.8,0.4-1.2,0 c-2-1.8-4.4-2.7-7-2.7c-5.8,0-10.4,4.9-10.4,10.7c0,5.7,4.6,10.6,10.4,10.6c2.6,0,4.6-0.8,5.5-1.2v-3.9h-3.7 c-0.5,0-0.9-0.4-0.9-0.8v-3.7c0-0.5,0.4-0.9,0.9-0.9h8.9c0.5,0,0.8,0.4,0.8,0.9v11.8c0,0.4-0.2,0.6-0.4,0.7c0,0-4.8,3-11.5,3 c-9.2,0-16.6-7.3-16.6-16.6C592.9,385,600.3,377.6,609.5,377.6"/><path class="st1" d="M627.5,378.9c0-0.5,0.4-0.9,0.9-0.9h18.8c0.5,0,0.9,0.4,0.9,0.9v3.8c0,0.5-0.4,0.9-0.9,0.9h-13.7v7.6H645 c0.5,0,0.9,0.4,0.9,0.9v3.8c0,0.5-0.4,0.9-0.9,0.9h-11.4v8.1h13.7c0.5,0,0.9,0.4,0.9,0.9v3.8c0,0.5-0.4,0.9-0.9,0.9h-18.8 c-0.5,0-0.9-0.4-0.9-0.9"/><path class="st1" d="M654.1,378.4c0-0.5,0.4-0.8,0.9-0.8h1.2l19.2,20.4h0v-19.1c0-0.5,0.4-0.9,0.9-0.9h4.3c0.5,0,0.9,0.4,0.9,0.9 v31.1c0,0.5-0.4,0.8-0.9,0.8h-1.1l-19.3-21.2h0v19.9c0,0.5-0.4,0.9-0.9,0.9H655c-0.5,0-0.9-0.4-0.9-0.9"/><path class="st1" d="M689.3,378.9c0-0.5,0.4-0.9,0.9-0.9h4.3c0.5,0,0.9,0.4,0.9,0.9v30.6c0,0.5-0.4,0.9-0.9,0.9h-4.3 c-0.5,0-0.9-0.4-0.9-0.9"/><path class="st1" d="M703.1,378.9c0-0.5,0.4-0.9,0.9-0.9h18.8c0.5,0,0.9,0.4,0.9,0.9v3.8c0,0.5-0.4,0.9-0.9,0.9h-13.7v7.6h11.4 c0.5,0,0.9,0.4,0.9,0.9v3.8c0,0.5-0.4,0.9-0.9,0.9h-11.4v8.1h13.7c0.5,0,0.9,0.4,0.9,0.9v3.8c0,0.5-0.4,0.9-0.9,0.9H704 c-0.5,0-0.9-0.4-0.9-0.9"/><path class="st1" d="M729.3,378.9c0-0.5,0.4-0.9,0.9-0.9h4.4c0.5,0,0.9,0.4,0.9,0.9v18.9c0,3.9,2.7,7,6.7,7c4,0,6.8-3.1,6.8-7v-19 c0-0.5,0.4-0.9,0.9-0.9h4.4c0.5,0,0.9,0.4,0.9,0.9v19.2c0,7-5.6,12.7-12.9,12.7c-7.3,0-12.9-5.7-12.9-12.7"/><path class="st1" d="M762.4,378.9c0-0.5,0.4-0.9,0.9-0.9h13.2c5.6,0,10.1,4.4,10.1,9.9c0,4.3-2.8,7.7-6.8,9.3l6.3,11.7 c0.3,0.6,0,1.3-0.8,1.3h-4.9c-0.4,0-0.6-0.2-0.7-0.4l-6.2-12.3h-5.1v11.8c0,0.5-0.4,0.9-0.9,0.9h-4.3c-0.5,0-0.9-0.4-0.9-0.9 M776,392.8c2.5,0,4.6-2.1,4.6-4.7c0-2.4-2.1-4.5-4.6-4.5h-7.5v9.2H776z"/><path class="st1" d="M221.8,321.4c0-0.5,0.4-1,1-1h20.6c0.6,0,1,0.5,1,1v4.2c0,0.5-0.4,1-1,1h-15v8.3h12.5c0.5,0,1,0.5,1,1v4.2 c0,0.6-0.5,1-1,1h-12.5v8.9h15c0.6,0,1,0.5,1,1v4.2c0,0.5-0.4,1-1,1h-20.6c-0.6,0-1-0.5-1-1"/><path class="st1" d="M266.6,319.9c5.1,0,8.8,1.6,12.3,4.7c0.5,0.4,0.5,1,0.1,1.4l-3.1,3.2c-0.4,0.4-0.9,0.4-1.3,0 c-2.1-1.9-5-3-7.8-3c-6.5,0-11.3,5.4-11.3,11.8c0,6.3,4.9,11.7,11.4,11.7c3,0,5.6-1.2,7.8-2.9c0.4-0.4,1-0.3,1.3,0l3.1,3.2 c0.4,0.4,0.3,1-0.1,1.4c-3.5,3.4-7.8,4.9-12.3,4.9c-10.1,0-18.3-8.1-18.3-18.2C248.2,328.1,256.4,319.9,266.6,319.9"/><path class="st1" d="M300.4,319.9c10.1,0,18.3,8.2,18.3,18.3c0,10.1-8.1,18.2-18.3,18.2c-10.1,0-18.2-8.1-18.2-18.2 C282.2,328.1,290.3,319.9,300.4,319.9 M300.4,349.8c6.4,0,11.7-5.2,11.7-11.6c0-6.4-5.3-11.7-11.7-11.7c-6.4,0-11.6,5.3-11.6,11.7 C288.8,344.6,294,349.8,300.4,349.8"/><path class="st1" d="M324.7,321.4c0-0.5,0.4-1,1-1h4.7c0.5,0,1,0.5,1,1v28.5h12.9c0.6,0,1,0.5,1,1v4.2c0,0.5-0.4,1-1,1h-18.6 c-0.6,0-1-0.5-1-1"/><path class="st1" d="M349.6,321.4c0-0.5,0.4-1,1-1h20.6c0.6,0,1,0.5,1,1v4.2c0,0.5-0.4,1-1,1h-15v8.3h12.5c0.5,0,1,0.5,1,1v4.2 c0,0.6-0.5,1-1,1h-12.5v8.9h15c0.6,0,1,0.5,1,1v4.2c0,0.5-0.4,1-1,1h-20.6c-0.6,0-1-0.5-1-1"/><path class="st1" d="M393,320.7c0.1-0.4,0.4-0.8,0.9-0.8h0.8c0.4,0,0.7,0.2,0.9,0.5l11.2,23.9h0.2l11.2-23.9 c0.2-0.3,0.4-0.5,0.9-0.5h0.8c0.6,0,0.9,0.4,0.9,0.8l6,34.1c0.2,0.7-0.3,1.2-0.9,1.2h-4.6c-0.5,0-0.9-0.4-1-0.8l-3-19.2H417 l-8.9,19.9c-0.1,0.3-0.4,0.6-0.9,0.6h-0.9c-0.5,0-0.7-0.3-0.9-0.6l-9-19.9h-0.2l-2.9,19.2c-0.1,0.4-0.5,0.8-0.9,0.8H388 c-0.7,0-1.1-0.5-1-1.2"/><path class="st1" d="M428.3,354.6l15.8-34.1c0.2-0.3,0.4-0.6,0.9-0.6h0.5c0.5,0,0.7,0.3,0.9,0.6l15.6,34.1c0.3,0.7-0.1,1.3-0.9,1.3 h-4.4c-0.8,0-1.1-0.3-1.5-1l-2.5-5.5h-15.2l-2.5,5.5c-0.2,0.5-0.7,1-1.5,1h-4.4C428.4,355.9,428,355.3,428.3,354.6 M450.3,343.8 l-5.1-11.2H445l-5,11.2H450.3z"/><path class="st1" d="M465.9,321.4c0-0.5,0.4-1,1-1h14.5c6.1,0,11.1,4.9,11.1,10.9c0,4.7-3.1,8.5-7.5,10.2l6.9,12.9 c0.4,0.7,0,1.5-0.9,1.5h-5.3c-0.5,0-0.7-0.3-0.8-0.5l-6.8-13.4h-5.6v12.9c0,0.5-0.5,1-1,1h-4.7c-0.6,0-1-0.5-1-1 M480.9,336.6 c2.7,0,5-2.3,5-5.2c0-2.7-2.3-4.9-5-4.9h-8.3v10.1H480.9z"/><path class="st1" d="M514.7,319.9c10.1,0,18.3,8.2,18.3,18.3c0,10.1-8.1,18.2-18.3,18.2c-10.1,0-18.2-8.1-18.2-18.2 C496.5,328.1,504.6,319.9,514.7,319.9 M514.7,349.8c6.4,0,11.7-5.2,11.7-11.6c0-6.4-5.3-11.7-11.7-11.7c-6.4,0-11.6,5.3-11.6,11.7 C503.1,344.6,508.3,349.8,514.7,349.8"/><path class="st1" d="M554.7,319.9c5.1,0,8.8,1.6,12.3,4.7c0.5,0.4,0.5,1,0,1.4l-3.1,3.2c-0.4,0.4-0.9,0.4-1.3,0c-2.1-1.9-5-3-7.8-3 c-6.5,0-11.3,5.4-11.3,11.8c0,6.3,4.9,11.7,11.4,11.7c3,0,5.6-1.2,7.8-2.9c0.4-0.4,1-0.3,1.3,0l3.1,3.2c0.4,0.4,0.3,1-0.1,1.4 c-3.4,3.4-7.8,4.9-12.3,4.9c-10.1,0-18.3-8.1-18.3-18.2C536.4,328.1,544.6,319.9,554.7,319.9"/><path class="st1" d="M568.4,354.6l15.8-34.1c0.2-0.3,0.4-0.6,0.9-0.6h0.5c0.5,0,0.7,0.3,0.9,0.6l15.6,34.1c0.3,0.7-0.1,1.3-0.9,1.3 h-4.4c-0.8,0-1.1-0.3-1.5-1l-2.5-5.5h-15.2l-2.5,5.5c-0.2,0.5-0.7,1-1.5,1h-4.4C568.5,355.9,568.1,355.3,568.4,354.6 M590.3,343.8 l-5.1-11.2h-0.2l-5,11.2H590.3z"/><path class="st1" d="M606,321.4c0-0.5,0.5-1,1-1h4.7c0.5,0,1,0.5,1,1v33.6c0,0.5-0.5,1-1,1H607c-0.5,0-1-0.5-1-1"/><path class="st1" d="M621.2,320.8c0-0.5,0.5-0.9,1-0.9h1.3l21.1,22.4h0v-21c0-0.5,0.4-1,1-1h4.7c0.5,0,1,0.5,1,1v34.1 c0,0.5-0.5,0.9-1,0.9H649l-21.2-23.3h-0.1v21.8c0,0.5-0.4,1-1,1h-4.6c-0.5,0-1-0.5-1-1"/><path class="st1" d="M659.8,321.4c0-0.5,0.4-1,1-1h20.6c0.6,0,1,0.5,1,1v4.2c0,0.5-0.4,1-1,1h-15v8.3h12.5c0.5,0,1,0.5,1,1v4.2 c0,0.6-0.5,1-1,1h-12.5v8.9h15c0.6,0,1,0.5,1,1v4.2c0,0.5-0.4,1-1,1h-20.6c-0.6,0-1-0.5-1-1"/><path class="st1" d="M699.5,321.4c0-0.5,0.4-1,0.9-1h12c9.8,0,17.8,8,17.8,17.7c0,9.8-8,17.8-17.8,17.8h-12c-0.5,0-0.9-0.5-0.9-1 M711.8,349.7c6.6,0,11.4-5,11.4-11.6c0-6.6-4.8-11.6-11.4-11.6h-5.8v23.2H711.8z"/><path class="st1" d="M736.3,321.4c0-0.5,0.4-1,1-1h20.6c0.6,0,1,0.5,1,1v4.2c0,0.5-0.4,1-1,1h-15v8.3h12.5c0.5,0,1,0.5,1,1v4.2 c0,0.6-0.5,1-1,1h-12.5v8.9h15c0.6,0,1,0.5,1,1v4.2c0,0.5-0.4,1-1,1h-20.6c-0.6,0-1-0.5-1-1"/><path class="st1" d="M763.4,350.9l1.8-3.1c0.4-0.7,1.3-0.7,1.7-0.4c0.3,0.2,4.4,3.1,7.7,3.1c2.6,0,4.6-1.7,4.6-3.9 c0-2.6-2.2-4.4-6.4-6.1c-4.8-1.9-9.5-5-9.5-11c0-4.5,3.3-9.7,11.4-9.7c5.2,0,9.1,2.6,10.1,3.4c0.5,0.3,0.7,1.2,0.3,1.7l-1.9,2.9 c-0.4,0.6-1.2,1-1.8,0.6c-0.4-0.3-4.3-2.8-7-2.8c-2.9,0-4.5,1.9-4.5,3.6c0,2.4,1.9,4,6,5.7c4.9,2,10.6,4.9,10.6,11.5 c0,5.2-4.5,10-11.7,10c-6.4,0-10.1-3-11.2-4C763.2,352,762.9,351.8,763.4,350.9"/><rect x="12.7" y="435.2" class="st0" width="173.2" height="49.5"/><path class="st2" d="M26.3,443h31.8l0.8,11.8h-1.8c-0.7-3.7-1.9-6.3-3.4-7.8c-1.6-1.5-3.6-2.2-6.1-2.2h-7.9c-0.6,0-1.1,0.2-1.4,0.4 c-0.3,0.3-0.5,0.8-0.5,1.4V459h3.4c1.8,0,3.3-0.6,4.5-1.7c1.1-1.1,1.8-2.9,1.9-5.3h1.9v16.1h-1.9c-0.1-2.7-0.7-4.6-1.9-5.7 c-1.2-1.2-2.7-1.7-4.8-1.7h-3.1v13.9c0,0.5,0.2,0.9,0.6,1.2c0.4,0.3,1,0.4,1.9,0.4h6.2c6.7,0,10.6-3.7,11.7-11.2h2l-0.7,13H26.3 v-1.8h2.7c1.1,0,1.8-0.2,2.3-0.5c0.4-0.3,0.7-0.8,0.7-1.4v-27.6c0-0.6-0.2-1.1-0.6-1.4c-0.4-0.3-1-0.4-1.8-0.4h-3.3"/><path class="st2" d="M64.4,443h13.4l12,27.5l11-27.5h13.7v1.8h-3.3c-1.2,0-2,0.2-2.4,0.4c-0.4,0.3-0.6,0.8-0.6,1.6v27.6 c0,0.6,0.2,1,0.7,1.3c0.5,0.3,1.3,0.4,2.5,0.4h3.1v1.8H96.1v-1.8h3.4c1,0,1.7-0.2,2.2-0.5c0.5-0.3,0.7-0.7,0.7-1.2v-29.6 l-13.3,33.1h-1.8l-14.3-33v25.3c0,1.5,0.2,2.6,0.7,3.4c0.4,0.7,1.1,1.3,1.9,1.7c0.8,0.4,2.1,0.6,4,0.7v1.8H64.4v-1.8 c2.5-0.1,4.2-0.6,5-1.4c0.9-0.8,1.3-2.2,1.3-4.2v-24c0-0.6-0.2-1-0.6-1.3c-0.4-0.3-1.2-0.4-2.3-0.4h-3.4"/><path class="st2" d="M142.3,445.7l2.4-3h2l0.2,12.7h-1.8c-1.1-3.9-2.8-6.7-5-8.5c-2.2-1.8-4.7-2.7-7.6-2.7c-2.4,0-4.3,0.6-5.9,1.9 c-1.5,1.2-2.3,2.8-2.3,4.6c0,1.1,0.3,2.1,0.9,2.9c0.6,0.8,1.4,1.5,2.6,2.1c1.1,0.5,3.3,1.1,6.5,1.7c4.5,0.8,7.6,1.7,9.4,2.6 c1.8,0.9,3.1,2,4,3.3c0.9,1.3,1.3,2.8,1.3,4.6c0,3.1-1.2,5.7-3.6,7.8c-2.4,2.1-5.6,3.1-9.4,3.1c-4.1,0-7.7-1.2-10.8-3.5l-3.1,3.3 h-2v-13.5h2c0.8,3.7,2.5,6.7,5.1,8.8c2.6,2.2,5.6,3.2,8.9,3.2c2.7,0,4.9-0.7,6.6-2.1c1.7-1.4,2.5-3,2.5-5c0-1.1-0.3-2.1-1-2.9 c-0.6-0.8-1.6-1.5-3-2.1c-1.4-0.6-4.1-1.3-8.1-2.1c-4.4-0.9-7.5-1.9-9.1-3.1c-2.3-1.6-3.4-3.9-3.4-6.8c0-3.1,1.1-5.6,3.4-7.5 c2.3-2,5.1-2.9,8.6-2.9c1.7,0,3.3,0.3,4.8,0.8C139.1,443.6,140.7,444.5,142.3,445.7"/><path class="st2" d="M154.3,443h18.5v1.8h-3.2c-1.4,0-2.3,0.2-2.7,0.5c-0.4,0.3-0.6,1-0.6,1.9v26.4c0,1.1,0.2,1.7,0.5,2 c0.4,0.4,1.2,0.5,2.4,0.5h3.6v1.8h-18.5v-1.8h3.5c1.2,0,2-0.2,2.4-0.5c0.4-0.3,0.5-1,0.5-2.1v-26.4c0-1-0.2-1.6-0.5-1.9 c-0.5-0.4-1.4-0.5-2.8-0.5h-3.1"/><rect x="158.1" y="418.8" transform="matrix(0.707 -0.7072 0.7072 0.707 -252.2181 240.1097)" width="11.2" height="11.2" style="fill:#DC4A27"/><path class="st1" d="M43.5,424c0,0,2.6,0.6,1.6,5.3c-0.2,0.8,0.2,5.3,3.9,4.5c3.7-0.8,2.9-1.9,2.1-6.4c-0.3-0.5-1.9-2.9,0-5.6 c0-0.6,7.5-21,5.1-26c0.2,0.3-0.8-5.1,4-0.8c-0.2,0.3,0.8,0.3,0.5,10.4c0,0.1-0.5,4.8,1.4,6.4c0,0.5-0.5,10.6-0.5,10.6 s-0.8,7.4,3.7,5.3c-0.2,0-0.2,6.6,2.6,5.9c0.3,0.3,4.2,0.8,2.4-7.4c0-0.3,1-5.3,2.3-9.8c0.3-0.3,4.2-14,3-23.1 c0.2,0.3,3.7-5.9,3.9-9.8c0.2,0,2.3-0.2,2.3-0.2s2.7,1.9,6.1,12.8c0-0.3,2.4,9.1,1.8,13.2c0,0.6,3,6.3,3,9.6 c0,3.4,0.7,9.2,0.2,10.6c0.3,0.3,2.6,2.7,2.4,3.9c-0.2,0.3,2.4,4.6,4.3,1.1c0.2-0.3,0-4.2-0.6-5.3c-0.2,0.1-1-2.6,0.9-5.6 c0.6-1.1,3.9-10,1.8-18.5c0.2,0-1.1-2.4,0.3-7.1c1.5-4,5.6-15.7,3.9-21.5c0,0.3-1.1-1.6-0.6-7.7c0.2,0.2,5.5-2.1,6.9,5.1 c0,0.2,0.2,10.6-1.4,14.8c0,0.5-1.3,12.2,1.1,18.1c0.3,0.3,4.2,11.7,4.2,11.7s0,8.8,2.2,9.3c0.6-0.5,1.9,1.8,2.9-7.1 c-0.2-0.3,1.9-3.7,0-6.9c0.3,0-2.6-15.6-2.6-15.6l4-8.3l1.3-0.2c0,0,1.4,16,0.2,35.8c0.3,0.6,1.4,2.7,1.4,2.7l1.1,1.9h6.4l-3.1-4.8 c0,0-0.8-5.6,1.3-9.6c0.3-0.3,2.3-16.4,1.9-22.6v-12.5c0,0,1.4-5.3,3.2-5.8c1-0.1,3.7,4.5,3.7,4.5l6.4-3.4l-1.4-4.6 c0,0,1.9-2.1,6.1-1.8c0.2,0-2.9-18.3-14.6-30.2c-0.2,0.2,0-3.7,0-3.7s-7.9-2.9-10.4-3.4c-0.3-0.1-0.3-4.8-0.3-4.8s4-7.7,2.7-9.5 c-0.8-1.3-5.8-5.8-14-0.5c0.5,0.2-3.8,3.8,0.5,7.5c0.1,0.3,0.9,1.4,0.9,1.4l-0.1,5.8c0,0-10.6,5.5-11.7,7.5 c-0.3,0.6-7.4-1.9-7.4-1.9v-2.7c0,0,2.3-0.8,1-3.4c0-0.5,0.2-8-1.9-9.8c-0.5,0.2-3.7-2.6-7.4,1.1c-0.6,0.3-5.6,8-5.6,8 s-1.3,3.9,1.9,5.3c0.2,0,0.3,1.8,0.6,2.6c0,0.2-1.3,2.1-5.1,1.6l-3.2-0.2l-0.2-1.1c0,0-4.2-0.2-5-2.4c0-0.6-0.1-3.2-0.1-3.2 l-0.5-2.7l1-1.9c0,0,1.6-8.2-3.5-9.3c-0.3,0-5.9-0.6-7.2,3.8c-0.1,0.3-0.5,4.6,1.6,7.7c-0.2-0.2-0.6,1-1.3,1.4 c-0.6,0.5-3.4,6.3-6.3,6.3c-0.2,0-3.9,1.4-4.3-2.2c0.3-0.2,0.3-3.4,0.3-3.4s3.7-5.9,2.9-8.3c0-0.3,0.6-4.5-5.9-4.3 c0.2,0-5.5-0.5-5.9,5.9c0.2,0.3-0.3,2.7,1.6,5.1c0.2,0-0.5,3.7-0.5,3.7s-4.2,2.6-7.1,3.2c-0.1,0-8.7,3.2-9.6,13.8 c-0.2,0-4.5,16-4.3,22.3c0.2,1,1.6,2.9,2.9,5.8c-0.2-0.5,0,2.4,0,2.4l-1.8,1.6l0.3,20.1l4.5,0.2l0.2-18.1c0,0,1-1.6,1-3.9 c-0.1-1.6,0.3-3.8,0.3-3.8l0.6-6.4c0,0,3.2,2.7,3.4,4.3c-0.3,1.8,0,26,4,36.1c-0.3,0,1.8,5.3,0,9.3c0.2,1-1,2.9,0.8,3.8 C38.8,426.4,40.9,427.7,43.5,424"/></svg>