<?xml version="1.0" encoding="utf-8"?>
<!-- Generator: Adobe Illustrator 19.2.1, SVG Export Plug-In . SVG Version: 6.00 Build 0)  -->
<svg version="1.1" id="layer" xmlns="http://www.w3.org/2000/svg" xmlns:xlink="http://www.w3.org/1999/xlink" x="0px" y="0px"
	 viewBox="0 0 652 652" style="enable-background:new 0 0 652 652;" xml:space="preserve">
<style type="text/css">
	.st0{fill:#F58220;}
	.st1{fill:#0066B3;}
</style>
<g>
	<path class="st0" d="M30.3,440.4c51.2,12.6,104.3,20.3,165.4,25.2c234,18.7,366.8-50.1,366.8-148.8c0-120-161.1-132.1-181.6-131.9
		c-3.8-0.1-4.3,1.8-1.7,2.5c31.5,9.6,62.1,22.1,83.9,44.4c19.2,19.6,33.7,42.2,33.7,81.5c0,24-12.2,52.3-34.5,72.8
		c-41.4,38.1-125,65.3-265.6,63.2c-48.2-0.7-103-5.6-165.2-13.9C25.6,434.6,25.4,439.3,30.3,440.4"/>
	<path class="st0" d="M596.1,334c1.1-1.7,2.5-1.8,3.2-0.5c5.1,9.7,8.2,17.5,10.3,24.2c0.3,0.9-0.2,2.9-1,4.3
		c-6,10.3-13.2,20.5-22.1,30.8c-1.3,1.6-2.5,2.2-3.2,1.4c-3.6-4.8-8.3-10.8-15.1-18.9c-1.2-1.6-0.5-3.5,1-5.3
		C580,357.8,588.7,345.7,596.1,334"/>
	<path class="st0" d="M596.1,299.3c1.1,1.6,2.5,1.8,3.2,0.4c5-9.7,8.2-17.5,10.3-24.2c0.4-1.5-0.2-2.9-1-4.3
		c-6-10.3-13.2-20.5-22.1-30.8c-1.3-1.5-2.4-2.4-3.2-1.4c-3.6,4.8-8.3,10.8-15.1,18.9c-0.8,1.1-0.5,3.5,1,5.3
		C580,275.5,588.7,287.6,596.1,299.3"/>
	<path class="st0" d="M617.9,287.9c0.3-1.1,1-0.8,1.5,0.6c3.9,9.6,6.1,18.5,7.3,26.3c0.2,1.2,0.1,2.8-0.1,4
		c-1.5,7.9-4.1,15.8-8.2,25.4c-0.6,1.5-1.3,1.7-1.5,0.7c-1.8-7.2-4.4-15.4-9.1-25.4c-0.7-1.8-0.8-3.4,0.1-5.3
		C612.9,304,615.9,295.5,617.9,287.9"/>
	<path class="st1" d="M553.8,274.7c1.4-1.6,3.7-1.3,5.4,0.6c11.4,13.4,20.6,26,28.1,37.7c1.3,2,1.2,3.9-0.1,6
		c-7.8,11.9-17.3,24.5-28.9,37.8c-1.8,1.8-4,2.2-5.4,0.7c-4.6-5.3-9.6-10.8-15.2-17.1c-5.7-6.3-11.6-12.7-18.2-19.9
		c-2-2.1-1.9-5.4,0.1-7.6C533.1,298.6,544.2,285.9,553.8,274.7"/>
	<path class="st1" d="M271.6,290.4c0.2,2.7,0.8,5.3,0.8,5.3h13.5l-0.1-0.9c-0.5-2.9-0.8-7.2-0.8-12.5l0.1-18.9
		c0.1-10.5-3.8-22.9-22.3-23c-7.2,0-14.5,1.8-19.5,4.7l-0.5,0.3l3.9,9.6c3.7-2.4,9-3.8,13.8-3.8c3.5,0,6.1,0.8,7.8,2.5
		c1.8,1.8,2.1,4.2,2.1,5.9v0.1c-11.9,0-21,2.7-26.1,7.8c-3.4,3.3-5.1,7.6-5.1,12.7c0,8.2,5.9,16.4,17.3,16.4
		C262.6,296.9,268,294.5,271.6,290.4 M255.9,273.8c2.6-2.6,7.6-3.8,14.8-3.8c0,1.2,0,6.6,0,6.6c0,0.6,0,1.7-0.3,2.6
		c-1.1,3.3-4.5,6.7-9.7,6.7c-4.3,0-6.8-2.6-6.8-6.8C253.8,276.9,254.5,275.2,255.9,273.8"/>
	<path class="st1" d="M297.6,259.4l-0.1,36.4h14.8v-28c0-1.4,0.1-2.7,0.3-3.8c1.2-5.9,5.4-9.5,11.2-9.4c1.4,0,2.5,0.1,3.7,0.4
		l0.9-13.8c0,0-1-0.5-3.9-0.5c-4.9,0-10.9,2.9-14.1,9.4c-0.1-2.8-0.4-8.3-0.4-8.3l-13,0l0,0.8C297.5,247.4,297.7,252.6,297.6,259.4"
		/>
	<path class="st1" d="M358.9,297.2c13.8,0,27.7-8.8,27.8-28.7c0-16.5-10.7-27.7-26.8-27.8c-16.7,0-28,11.4-28,28.5
		C331.9,285.6,343,297.1,358.9,297.2 M359.5,251.9c8.4,0,12.1,8.5,12,16.9c0,10.1-5.1,17.1-12.2,17.1c-7.3,0-12.3-7-12.2-17
		C347,261.1,350.3,251.9,359.5,251.9"/>
	<path class="st1" d="M420.8,297.2c6.9,0,12.5-1.4,15.2-2.7l-2.4-11.2c-2.1,0.9-5.4,2-10.2,2c-9.2,0-15.3-6.6-15.3-16.2
		c0-4.9,1.6-9.2,4.5-12.1c2.7-2.8,6.5-4.2,10.8-4.1c3.8,0,7,0.7,9.7,2l3-11.3c-3.4-1.5-8.4-2.5-13.1-2.5
		c-17.9-0.1-30,11.4-30.1,28.6C393,286.4,403.9,297.2,420.8,297.2"/>
	<path class="st1" d="M207.2,221c0,0-16.1,51.1-16.6,52.8C190.1,272.1,174,221,174,221h-22.6v74.7h14.4c0,0-0.4-55.6-0.4-58.7
		c1,3.3,18.2,58.7,18.2,58.7h13.9c0,0,17.2-55.4,18.2-58.7c0,3.5-0.4,58.7-0.4,58.7h14.4V221h-0.3H207.2z"/>
	<rect x="165.9" y="320.8" class="st1" width="14.8" height="71.8"/>
	<path class="st1" d="M276.2,349.6c3.7,0,7,0.7,9.7,2l3-11.3c-3.4-1.5-8.5-2.5-13.2-2.5c-17.9,0-30,11.4-30,28.6
		c-0.1,16.8,10.8,27.6,27.8,27.7c6.9,0,12.5-1.5,15.2-2.7l-2.4-11.2c-2.1,0.9-5.4,2-10.2,2c-9.2,0-15.4-6.6-15.3-16.3
		c0-4.9,1.6-9.2,4.5-12.1C268.1,351,271.8,349.6,276.2,349.6"/>
	<path class="st1" d="M321.3,337.9c-16.7-0.1-28,11.4-28,28.5c0,16.4,11,27.8,26.9,27.9c13.9,0,27.7-8.8,27.8-28.6
		C348,349.1,337.3,337.9,321.3,337.9 M320.5,383.1c-7.3,0-12.3-7-12.3-17c0-7.9,3.3-17.1,12.5-17.1c8.3,0,12,8.6,12,16.9
		C332.7,376.1,327.7,383.1,320.5,383.1"/>
	<path class="st1" d="M418.1,337.6c-4.3,0-7.8,1-11,3.2c-2.3,1.5-4.3,3.6-6,6c-2.6-5.7-8.2-9.3-14.8-9.3c-8.2,0-13.1,4-15.9,7.9
		c-0.2-2.1-0.5-6.7-0.5-6.7l-12.8,0l0,0.8c0.2,4.5,0.4,9.5,0.4,15.6l0,37.8h14.4l0-31.8c0-1.5,0.2-3,0.6-4.2c1.2-3.2,4.1-7,8.9-6.9
		c7.5,0,8.3,8.3,8.3,11.8l-0.1,31.2H404l0.1-32.3c0-1.4,0.3-3,0.7-4.2c1.1-3,4-6.5,8.6-6.5c5.7,0,8.6,4.5,8.6,13.2v29.7h14.4v-31.6
		C436.4,343.8,427,337.6,418.1,337.6"/>
	<polygon class="st1" points="115,330.8 115,318 57.9,318 57.9,330.8 78.9,330.7 78.9,392.7 93.8,392.7 93.8,330.8 	"/>
	<path class="st1" d="M216.5,337.4c-18.2-0.1-26.5,14.9-26.5,28.9c0,16.9,10.6,27.4,27.7,27.5c8.8,0,15-1.8,18.7-3.3l0.5-0.3
		l-3.1-10.3c-4.4,1.7-8.8,2.4-14.2,2.4c-9.1,0-14.7-4.8-15.3-12.4h35c0.3-1.3,0.6-3.7,0.6-6C239.8,351.6,233.8,337.4,216.5,337.4
		 M215.6,347.9c2.9,0,5.3,0.9,7,2.7c2.7,2.8,3.1,6.7,3.2,8.7h-21.5C205.2,353.8,208.6,347.9,215.6,347.9"/>
	<path class="st1" d="M133.2,337.4c-18.2-0.1-26.5,14.9-26.5,28.9c0,16.9,10.6,27.4,27.8,27.5c8.8,0,15-1.8,18.6-3.3l0.6-0.3
		l-3.1-10.3c-4.4,1.7-8.8,2.4-14.2,2.4c-9.1,0-14.7-4.8-15.3-12.4h35c0.3-1.3,0.5-3.7,0.6-6C156.5,351.6,150.5,337.4,133.2,337.4
		 M132.3,347.9c2.9,0,5.2,0.9,6.9,2.7c2.7,2.8,3.2,6.7,3.2,8.7H121C121.9,353.8,125.3,347.9,132.3,347.9"/>
</g>
</svg>
